<svg xmlns="http://www.w3.org/2000/svg" aria-hidden="true" style="position:absolute;width:0;height:0;overflow:hidden"><defs><symbol id="icon-close" viewBox="0 0 32 32"><path d="M27.179.918 15.864 12.23 4.552.918.781 4.689l11.312 11.312L.781 27.313l3.771 3.771 11.312-11.312 11.315 11.312 3.771-3.771-11.312-11.312L30.95 4.689 27.179.918z"/></symbol><symbol id="icon-bean" viewBox="0 0 32 32"><path d="M31.923 14.443C31.062 5.633 23.21-.804 14.402.081 5.627.962-.78 8.779.078 17.557s8.658 15.205 17.438 14.371c8.812-.838 15.269-8.674 14.408-17.484zM19.996 3.775c.195-.001.341.039.523.089l.039.011c.071.357 0 .522-.187.826-.326.531-.69 1.04-1.053 1.549-.641.898-1.283 1.796-1.722 2.819-.953 2.218-.731 4.806-.506 7.42.196 2.288.395 4.597-.192 6.698-.705 2.527-2.476 4.18-4.693 5.412-.123.021-.259.01-.389 0l-.081-.006-.05-.003-.021-.041c-.126-.24-.134-.255-.043-.528.119-.355.355-.717.577-1.059.085-.131.168-.258.242-.381.771-1.284 1.526-2.671 1.762-4.169.295-1.871.138-3.797-.019-5.722-.199-2.443-.399-4.887.326-7.22.891-2.866 2.976-4.36 5.486-5.694z"/></symbol><symbol id="icon-menu" viewBox="0 0 43 32"><path d="M0 0h42.667v5.333H0V0zm0 13.333h42.667v5.333H0v-5.333zm0 13.334h42.667V32H0v-5.333z"/></symbol><symbol id="icon-right" viewBox="0 0 21 32"><path d="m4.552 31.273 15.219-15.219L4.552.835.781 4.606l11.448 11.448L.781 27.502l3.771 3.771z"/></symbol><symbol id="icon-chevrons-right" viewBox="0 0 31 32"><path d="M13.179 10.509 18.715 16l-5.536 5.491 1.802 1.818L22.35 16l-7.369-7.309-1.802 1.818z"/><path d="m8.581 8.691-1.802 1.818L12.315 16l-5.536 5.491 1.802 1.818L15.95 16 8.581 8.691z"/></symbol><symbol id="icon-email" viewBox="0 0 41 32"><path d="M35.879.162H4.849A3.883 3.883 0 0 0 .97 4.041v23.273a3.883 3.883 0 0 0 3.879 3.879h31.03a3.883 3.883 0 0 0 3.879-3.879V4.041A3.883 3.883 0 0 0 35.879.162zm0 3.879v.991L20.364 17.101 4.849 5.034v-.993h31.03zM4.848 27.313V9.944l14.324 11.142a1.928 1.928 0 0 0 2.382 0L35.878 9.944l.004 17.369H4.848z"/></symbol><symbol id="icon-facebook" viewBox="0 0 30 32"><path d="M30.476 15.362c0-8.467-6.822-15.331-15.238-15.331S0 6.895 0 15.362c0 7.652 5.572 13.995 12.857 15.145V19.794H8.988v-4.432h3.869v-3.378c0-3.842 2.275-5.965 5.756-5.965 1.667 0 3.411.299 3.411.299v3.773h-1.921c-1.893 0-2.483 1.182-2.483 2.394v2.876h4.226l-.675 4.432H17.62v10.713c7.285-1.15 12.857-7.493 12.857-15.145z"/></symbol><symbol id="icon-icon2" viewBox="0 0 32 32"><path d="m16 24 1.6-3.2v-8.227c2.754-.715 4.8-3.2 4.8-6.173C22.4 2.87 19.53 0 16 0S9.6 2.87 9.6 6.4c0 2.973 2.046 5.458 4.8 6.173V20.8L16 24zM12.8 6.4c0-1.765 1.435-3.2 3.2-3.2s3.2 1.435 3.2 3.2c0 1.765-1.435 3.2-3.2 3.2s-3.2-1.435-3.2-3.2z"/><path d="m22.827 13.701-.853 3.085C26.12 17.932 28.8 20.135 28.8 22.4c0 3.027-5.256 6.4-12.8 6.4S3.2 25.427 3.2 22.4c0-2.266 2.68-4.469 6.827-5.616l-.853-3.085C3.515 15.264 0 18.597 0 22.4 0 27.782 7.029 32 16 32s16-4.218 16-9.6c0-3.803-3.515-7.136-9.173-8.699z"/></symbol><symbol id="icon-instagram" viewBox="0 0 31 32"><path d="M15.358 6.91c3.078 0 3.442.014 4.652.068 1.125.05 1.732.238 2.137.396.536.207.922.459 1.323.86.405.405.652.788.864 1.323.158.405.346 1.017.396 2.137.054 1.215.068 1.579.068 4.653s-.014 3.442-.068 4.653c-.05 1.125-.238 1.732-.396 2.137a3.558 3.558 0 0 1-.86 1.323 3.62 3.62 0 0 1-1.323.864c-.405.158-1.017.346-2.137.396-1.215.054-1.58.068-4.653.068s-3.442-.014-4.653-.068c-1.125-.05-1.732-.238-2.137-.396a3.558 3.558 0 0 1-1.323-.86 3.617 3.617 0 0 1-.864-1.322c-.158-.405-.346-1.017-.396-2.137-.054-1.215-.068-1.579-.068-4.653s.014-3.442.068-4.653c.05-1.125.238-1.732.396-2.137.207-.536.459-.922.86-1.323a3.62 3.62 0 0 1 1.323-.864c.405-.158 1.017-.346 2.137-.396 1.21-.054 1.575-.068 4.653-.068h.001zm0-2.074c-3.127 0-3.518.014-4.747.068-1.224.054-2.065.252-2.794.536a5.609 5.609 0 0 0-2.042 1.332A5.636 5.636 0 0 0 4.443 8.81c-.284.734-.482 1.57-.536 2.794-.054 1.233-.068 1.624-.068 4.751s.014 3.518.068 4.747c.054 1.224.252 2.065.536 2.794.297.76.688 1.404 1.332 2.042a5.637 5.637 0 0 0 2.038 1.328c.734.284 1.57.482 2.794.536 1.228.054 1.62.068 4.747.068s3.519-.014 4.747-.068c1.224-.054 2.065-.252 2.794-.536.756-.292 1.4-.688 2.038-1.328s1.035-1.282 1.328-2.038c.284-.734.482-1.57.536-2.794.054-1.228.068-1.62.068-4.747s-.014-3.518-.068-4.747c-.054-1.224-.252-2.065-.536-2.794a5.405 5.405 0 0 0-1.318-2.047 5.621 5.621 0 0 0-2.038-1.327c-.734-.284-1.57-.482-2.794-.536-1.233-.058-1.624-.072-4.751-.072l-.001.001z"/><path d="M15.358 10.438a5.918 5.918 0 1 0 5.917 5.917 5.918 5.918 0 0 0-5.917-5.917zm0 9.754a3.839 3.839 0 1 1 .002-7.678 3.839 3.839 0 0 1-.002 7.678zM22.889 10.204a1.38 1.38 0 1 1-2.761 0 1.38 1.38 0 0 1 2.761 0z"/></symbol><symbol id="icon-map" viewBox="0 0 31 32"><path d="M15.515 18.855c2.852 0 5.172-2.32 5.172-5.172s-2.32-5.172-5.172-5.172-5.172 2.32-5.172 5.172 2.319 5.172 5.172 5.172zm0-7.757c1.426 0 2.586 1.16 2.586 2.586s-1.16 2.586-2.586 2.586-2.586-1.16-2.586-2.586 1.16-2.586 2.586-2.586z"/><path d="M14.765 28.958a1.292 1.292 0 0 0 1.5 0c.393-.278 9.631-6.948 9.593-15.275 0-5.703-4.64-10.343-10.343-10.343S5.172 7.98 5.172 13.677c-.037 8.333 9.2 15.003 9.594 15.281zm.75-23.032c4.278 0 7.758 3.479 7.758 7.764.027 5.738-5.673 10.89-7.758 12.58-2.083-1.691-7.785-6.845-7.758-12.587 0-4.278 3.479-7.758 7.758-7.758z"/></symbol><symbol id="icon-phone" viewBox="0 0 31 32"><path d="M22.894 16.648a1.275 1.275 0 0 0-1.409-.281c-.157.065-.299.16-.419.281l-2.061 2.061c-.956-.284-2.738-.931-3.869-2.061s-1.777-2.913-2.061-3.868l2.061-2.061a1.292 1.292 0 0 0 0-1.828L9.964 3.719a1.292 1.292 0 0 0-1.828 0L4.63 7.225a2.586 2.586 0 0 0-.758 1.855c.03 1.841.517 8.236 5.557 13.276s11.435 5.526 13.277 5.557h.036c.683 0 1.328-.269 1.817-.758l3.506-3.506a1.275 1.275 0 0 0 .281-1.409 1.277 1.277 0 0 0-.281-.419l-5.172-5.173zm-.164 8.678c-1.614-.027-7.134-.46-11.472-4.799-4.352-4.352-4.773-9.892-4.799-11.473l2.592-2.592 3.343 3.344-1.672 1.672a1.288 1.288 0 0 0-.352 1.179c.031.149.79 3.674 2.936 5.821s5.672 2.905 5.821 2.936a1.285 1.285 0 0 0 1.179-.35l1.673-1.672 3.343 3.343-2.594 2.592z"/></symbol><symbol id="icon-star-empty" viewBox="0 0 34 32"><path stroke-width="1.684" d="M16.052 1.359c.29-.688 1.289-.688 1.579 0l3.416 8.115a2.537 2.537 0 0 0 2.14 1.539l8.869.702a.828.828 0 0 1 .49 1.457l-6.758 5.719a2.506 2.506 0 0 0-.821 2.502l2.066 8.549c.167.694-.609 1.303-1.279.898h-.002l-7.59-4.581a2.555 2.555 0 0 0-2.638 0L7.932 30.84c-.671.405-1.447-.204-1.28-.898l2.066-8.549a2.506 2.506 0 0 0-.821-2.502l-6.758-5.719a.827.827 0 0 1 .49-1.457l8.868-.702a2.54 2.54 0 0 0 2.14-1.539l3.416-8.115z"/></symbol><symbol id="icon-star-full" viewBox="0 0 34 32"><path d="M15.277 1.031c.579-1.375 2.551-1.375 3.13 0l3.417 8.116c.244.58.796.976 1.43 1.026l8.869.702c1.503.119 2.112 1.972.967 2.941l-6.757 5.718a1.66 1.66 0 0 0-.546 1.66l2.064 8.55c.35 1.449-1.245 2.594-2.532 1.817l-7.593-4.582a1.714 1.714 0 0 0-1.767 0l-7.593 4.582c-1.287.776-2.882-.369-2.532-1.817l2.064-8.55a1.662 1.662 0 0 0-.546-1.66L.595 13.816c-1.145-.969-.536-2.822.967-2.941l8.869-.702a1.692 1.692 0 0 0 1.429-1.026l3.417-8.116z"/></symbol><symbol id="icon-x" viewBox="0 0 34 32"><path d="M26.684.039h5.195L20.528 12.796l13.353 17.36H23.426l-8.189-10.529-9.37 10.529H.668L12.809 16.51-.001.038H10.72l7.402 9.624L26.683.038zm-1.823 27.059h2.879L9.157 2.936H6.068l18.794 24.162z"/></symbol></defs></svg>